<svg xmlns="http://www.w3.org/2000/svg" viewBox="0 0 360 760"><rect width="360" height="760" fill="#FFFFFF"/><rect x="0" y="0" width="360" height="430" fill="#E9EEF3"/><rect x="40" y="0" width="14" height="430" fill="#FFFFFF"/><rect x="130" y="0" width="14" height="430" fill="#FFFFFF"/><rect x="220" y="0" width="14" height="430" fill="#FFFFFF"/><rect x="310" y="0" width="14" height="430" fill="#FFFFFF"/><rect x="0" y="80" width="360" height="12" fill="#FFFFFF"/><rect x="0" y="190" width="360" height="12" fill="#FFFFFF"/><rect x="0" y="300" width="360" height="12" fill="#FFFFFF"/><rect x="0" y="400" width="360" height="12" fill="#FFFFFF"/><rect x="60" y="100" width="60" height="80" fill="#D8E6D0"/><rect x="240" y="210" width="60" height="80" fill="#D8E6D0"/><path d="M140 400 L140 196 L226 196 L226 90" stroke="#F28C28" stroke-width="4" fill="none" stroke-dasharray="8 6"/><circle cx="226" cy="120" r="14" fill="#1B3A6B"/><text x="226" y="125" font-family="Helvetica, Arial, sans-serif" font-size="13" font-weight="400" fill="#FFFFFF" text-anchor="middle" >🛵</text><circle cx="140" cy="398" r="10" fill="#F28C28" stroke="#FFFFFF" stroke-width="3"/><text x="18" y="17" font-family="Helvetica, Arial, sans-serif" font-size="11" font-weight="600" fill="#1F2224" text-anchor="start" >9:41</text><rect x="300" y="8" width="22" height="10" rx="2" fill="none" stroke="#1F2224"/><rect x="302" y="10" width="14" height="6" fill="#1F2224"/><rect x="276" y="16" width="3" height="3" fill="#1F2224"/><rect x="281" y="14" width="3" height="5" fill="#1F2224"/><rect x="286" y="12" width="3" height="7" fill="#1F2224"/><rect x="291" y="10" width="3" height="9" fill="#1F2224"/><rect x="12" y="40" width="40" height="40" rx="20" fill="#FFFFFF"/><text x="32" y="66" font-family="Helvetica, Arial, sans-serif" font-size="18" font-weight="700" fill="#1F2224" text-anchor="middle" >←</text><rect x="16" y="236" width="328" height="84" rx="14" fill="#1F2224"/><text x="32" y="264" font-family="Helvetica, Arial, sans-serif" font-size="13" font-weight="800" fill="#FFD166" text-anchor="start" >⭐ Get FREE delivery with Thali Gold</text><text x="32" y="284" font-family="Helvetica, Arial, sans-serif" font-size="11" font-weight="400" fill="#FFFFFF" text-anchor="start" >Join today for just ₹99 / 3 months</text><rect x="32" y="292" width="92" height="20" rx="10" fill="#FFD166"/><text x="78" y="306" font-family="Helvetica, Arial, sans-serif" font-size="10" font-weight="800" fill="#1F2224" text-anchor="middle" >Join now</text><text x="334" y="254" font-family="Helvetica, Arial, sans-serif" font-size="10" font-weight="700" fill="#8A9094" text-anchor="end" >×</text><rect x="0" y="416" width="360" height="344" rx="20" fill="#FFFFFF"/><rect x="160" y="426" width="40" height="4" rx="2" fill="#D5D9DB"/><rect x="16" y="444" width="328" height="96" rx="12" fill="#FFF7E6" stroke="#FFE0A3"/><text x="32" y="470" font-family="Helvetica, Arial, sans-serif" font-size="13" font-weight="700" fill="#1F2224" text-anchor="start" >How was your last order?</text><text x="32" y="498" font-family="Helvetica, Arial, sans-serif" font-size="20" font-weight="400" fill="#E0A800" text-anchor="start" >★ ★ ★ ★ ★</text><rect x="240" y="480" width="88" height="28" rx="14" fill="#F28C28"/><text x="284" y="499" font-family="Helvetica, Arial, sans-serif" font-size="11" font-weight="800" fill="#FFFFFF" text-anchor="middle" >Rate now</text><text x="32" y="526" font-family="Helvetica, Arial, sans-serif" font-size="9" font-weight="400" fill="#8A9094" text-anchor="start" >Earn 10 Thali coins for every review!</text><text x="18" y="574" font-family="Helvetica, Arial, sans-serif" font-size="16" font-weight="800" fill="#1F2224" text-anchor="start" >Your order is on the way!</text><text x="18" y="596" font-family="Helvetica, Arial, sans-serif" font-size="13" font-weight="700" fill="#F28C28" text-anchor="start" >Arriving soon</text><line x1="16" y1="614" x2="344" y2="614" stroke="#EEF0F1"/><circle cx="42" cy="652" r="22" fill="#DDE4EE"/><circle cx="42" cy="646" r="8" fill="#8A9AB0"/><path d="M28 666 q14 -14 28 0" fill="#8A9AB0"/><text x="76" y="648" font-family="Helvetica, Arial, sans-serif" font-size="13" font-weight="700" fill="#1F2224" text-anchor="start" >Suresh</text><text x="76" y="666" font-family="Helvetica, Arial, sans-serif" font-size="10" font-weight="400" fill="#8A9094" text-anchor="start" >Scooter · UP32 AB 1234</text><text x="334" y="656" font-family="Helvetica, Arial, sans-serif" font-size="22" font-weight="700" fill="#5B6366" text-anchor="end" >⋮</text><text x="18" y="716" font-family="Helvetica, Arial, sans-serif" font-size="11" font-weight="400" fill="#5B6366" text-anchor="start" >Delivering to: Home · Gomti Nagar</text></svg>