<svg xmlns="http://www.w3.org/2000/svg" viewBox="0 0 200 200"><rect width="200" height="200" fill="#FFFFFF"/><g fill="none" stroke="#333A3D" stroke-width="2">
<polygon points="40,95 100,45 160,95" fill="#E8B08C"/><rect x="52" y="95" width="96" height="70" fill="#F4E1C8"/>
<line x1="52" y1="100" x2="148" y2="100" stroke="#C9A27E" stroke-width="1"/><line x1="52" y1="108" x2="148" y2="108" stroke="#C9A27E" stroke-width="1"/><line x1="52" y1="116" x2="148" y2="116" stroke="#C9A27E" stroke-width="1"/><line x1="52" y1="124" x2="148" y2="124" stroke="#C9A27E" stroke-width="1"/><line x1="52" y1="132" x2="148" y2="132" stroke="#C9A27E" stroke-width="1"/><line x1="52" y1="140" x2="148" y2="140" stroke="#C9A27E" stroke-width="1"/><line x1="52" y1="148" x2="148" y2="148" stroke="#C9A27E" stroke-width="1"/><line x1="52" y1="156" x2="148" y2="156" stroke="#C9A27E" stroke-width="1"/>
<rect x="62" y="108" width="22" height="20" fill="#9ED0E6"/><line x1="73" y1="108" x2="73" y2="128"/><line x1="62" y1="118" x2="84" y2="118"/>
<rect x="116" y="108" width="22" height="20" fill="#9ED0E6"/><line x1="127" y1="108" x2="127" y2="128"/><line x1="116" y1="118" x2="138" y2="118"/>
<rect x="90" y="130" width="20" height="35" fill="#8B5A3C"/><circle cx="105" cy="148" r="1.6" fill="#333A3D"/>
<rect x="125" y="52" width="14" height="28" fill="#B5651D"/>
<path d="M132 50 q-8 -8 0 -14 q8 -6 0 -14" /><path d="M20 165 h160"/>
<line x1="24" y1="150" x2="24" y2="165"/><line x1="36" y1="150" x2="36" y2="165"/><line x1="48" y1="150" x2="48" y2="165"/><line x1="152" y1="150" x2="152" y2="165"/><line x1="162" y1="150" x2="162" y2="165"/><line x1="172" y1="150" x2="172" y2="165"/>
<line x1="20" y1="155" x2="50" y2="155"/><line x1="150" y1="155" x2="180" y2="155"/></g></svg>